<svg xmlns="http://www.w3.org/2000/svg" version="1.1" xmlns:xlink="http://www.w3.org/1999/xlink" viewBox="0 0 200 200" width="200" height="200"><rect width="200" height="200" fill="url('#gradient')"></rect><defs><linearGradient id="gradient" gradientTransform="rotate(45 0.5 0.5)"><stop offset="0%" stop-color="#f8db3e"></stop><stop offset="100%" stop-color="#ecb244"></stop></linearGradient></defs><g><g fill="#382b3f" transform="matrix(5.285919128190422,0,0,5.285919128190422,4.324274674540845,137.58226057366585)" stroke="#70404c" stroke-width="0.2"><path d="M8.94 0L5.91-5.29L4.50-3.75L4.50 0L1.07 0L1.07-14.22L4.50-14.22L4.50-7.95L5.69-9.76L8.76-14.22L13.00-14.22L8.19-7.93L13.00 0L8.94 0ZM23.54-14.22L23.54-12.46L18.23 0L14.76 0L20.08-11.68L13.30-11.68L13.30-14.22L23.54-14.22ZM35.13-14.22L35.13-12.46L29.81 0L26.34 0L31.66-11.68L24.88-11.68L24.88-14.22L35.13-14.22Z"></path></g></g></svg>